<svg version="1.1" viewBox="0.0 0.0 960.0 540.0" fill="none" stroke="none" stroke-linecap="square" stroke-miterlimit="10" xmlns:xlink="http://www.w3.org/1999/xlink" xmlns="http://www.w3.org/2000/svg"><clipPath id="g5f193edc6f_0_0.0"><path d="m0 0l960.0 0l0 540.0l-960.0 0l0 -540.0z" clip-rule="nonzero"/></clipPath><g clip-path="url(#g5f193edc6f_0_0.0)"><path fill="#ffffff" d="m0 0l960.0 0l0 540.0l-960.0 0z" fill-rule="evenodd"/><path fill="#000000" fill-opacity="0.0" d="m211.69292 117.362206l531.937 0" fill-rule="evenodd"/><path stroke="#595959" stroke-width="1.0" stroke-linejoin="round" stroke-linecap="butt" d="m211.69292 117.362206l531.937 0" fill-rule="evenodd"/><path fill="#eeeeee" d="m108.44882 86.90551l103.244095 0l0 60.913383l-103.244095 0z" fill-rule="evenodd"/><path stroke="#595959" stroke-width="1.0" stroke-linejoin="round" stroke-linecap="butt" d="m108.44882 86.90551l103.244095 0l0 60.913383l-103.244095 0z" fill-rule="evenodd"/><path fill="#eeeeee" d="m267.24606 86.90551l103.24408 0l0 60.913383l-103.24408 0z" fill-rule="evenodd"/><path stroke="#595959" stroke-width="1.0" stroke-linejoin="round" stroke-linecap="butt" d="m267.24606 86.90551l103.24408 0l0 60.913383l-103.24408 0z" fill-rule="evenodd"/><path fill="#eeeeee" d="m426.0433 86.90551l103.24411 0l0 60.913383l-103.24411 0z" fill-rule="evenodd"/><path stroke="#595959" stroke-width="1.0" stroke-linejoin="round" stroke-linecap="butt" d="m426.0433 86.90551l103.24411 0l0 60.913383l-103.24411 0z" fill-rule="evenodd"/><path fill="#eeeeee" d="m584.8406 86.90551l103.24408 0l0 60.913383l-103.24408 0z" fill-rule="evenodd"/><path stroke="#595959" stroke-width="1.0" stroke-linejoin="round" stroke-linecap="butt" d="m584.8406 86.90551l103.24408 0l0 60.913383l-103.24408 0z" fill-rule="evenodd"/><path fill="#eeeeee" d="m743.6378 86.90551l103.24408 0l0 60.913383l-103.24408 0z" fill-rule="evenodd"/><path stroke="#595959" stroke-width="1.0" stroke-linejoin="round" stroke-linecap="butt" d="m743.6378 86.90551l103.24408 0l0 60.913383l-103.24408 0z" fill-rule="evenodd"/><path fill="#eeeeee" d="m347.8681 208.73228l103.24411 0l0 60.913376l-103.24411 0z" fill-rule="evenodd"/><path stroke="#595959" stroke-width="1.0" stroke-linejoin="round" stroke-linecap="butt" d="m347.8681 208.73228l103.24411 0l0 60.913376l-103.24411 0z" fill-rule="evenodd"/><path fill="#eeeeee" d="m507.33398 208.73228l103.24408 0l0 60.913376l-103.24408 0z" fill-rule="evenodd"/><path stroke="#595959" stroke-width="1.0" stroke-linejoin="round" stroke-linecap="butt" d="m507.33398 208.73228l103.24408 0l0 60.913376l-103.24408 0z" fill-rule="evenodd"/><path fill="#eeeeee" d="m190.66339 330.90552l103.24408 0l0 60.91339l-103.24408 0z" fill-rule="evenodd"/><path stroke="#595959" stroke-width="1.0" stroke-linejoin="round" stroke-linecap="butt" d="m190.66339 330.90552l103.24408 0l0 60.91339l-103.24408 0z" fill-rule="evenodd"/><path fill="#eeeeee" d="m666.7946 331.26773l103.24408 0l0 60.91336l-103.24408 0z" fill-rule="evenodd"/><path stroke="#595959" stroke-width="1.0" stroke-linejoin="round" stroke-linecap="butt" d="m666.7946 331.26773l103.24408 0l0 60.91336l-103.24408 0z" fill-rule="evenodd"/><path fill="#000000" fill-opacity="0.0" d="m160.07086 147.8189l0 213.54332l30.582687 0" fill-rule="evenodd"/><path stroke="#595959" stroke-width="1.0" stroke-linejoin="round" stroke-linecap="butt" d="m160.07086 147.8189l0 213.54332l30.582687 0" fill-rule="evenodd"/><path fill="#000000" fill-opacity="0.0" d="m770.0387 361.7244l25.228394 0l0 -213.88976" fill-rule="evenodd"/><path stroke="#595959" stroke-width="1.0" stroke-linejoin="round" stroke-linecap="butt" d="m770.0387 361.7244l25.228394 0l0 -213.88976" fill-rule="evenodd"/><path fill="#000000" fill-opacity="0.0" d="m293.90747 361.3622l372.8819 0.3779297" fill-rule="evenodd"/><path stroke="#595959" stroke-width="1.0" stroke-linejoin="round" stroke-linecap="butt" d="m293.90747 361.3622l372.8819 0.3779297" fill-rule="evenodd"/><path fill="#000000" fill-opacity="0.0" d="m318.8681 147.8189l0 91.37009l29.007874 0" fill-rule="evenodd"/><path stroke="#595959" stroke-width="1.0" stroke-linejoin="round" stroke-linecap="butt" d="m318.8681 147.8189l0 91.37009l29.007874 0" fill-rule="evenodd"/><path fill="#000000" fill-opacity="0.0" d="m610.57806 239.18898l25.88977 0l0 -91.37009" fill-rule="evenodd"/><path stroke="#595959" stroke-width="1.0" stroke-linejoin="round" stroke-linecap="butt" d="m610.57806 239.18898l25.88977 0l0 -91.37009" fill-rule="evenodd"/><path fill="#000000" fill-opacity="0.0" d="m451.1122 239.18898l56.22046 0" fill-rule="evenodd"/><path stroke="#595959" stroke-width="1.0" stroke-linejoin="round" stroke-linecap="butt" d="m451.1122 239.18898l56.22046 0" fill-rule="evenodd"/><path fill="#ffffff" d="m256.85303 111.34646l10.393677 6.015747l-10.393677 6.015747z" fill-rule="evenodd"/><path stroke="#666666" stroke-width="1.0" stroke-linejoin="round" stroke-linecap="butt" d="m256.85303 111.34646l10.393677 6.015747l-10.393677 6.015747z" fill-rule="evenodd"/><path fill="#ffffff" d="m415.6509 111.34646l10.393707 6.015747l-10.393707 6.015747z" fill-rule="evenodd"/><path stroke="#666666" stroke-width="1.0" stroke-linejoin="round" stroke-linecap="butt" d="m415.6509 111.34646l10.393707 6.015747l-10.393707 6.015747z" fill-rule="evenodd"/><path fill="#ffffff" d="m574.4488 111.34646l10.393738 6.015747l-10.393738 6.015747z" fill-rule="evenodd"/><path stroke="#666666" stroke-width="1.0" stroke-linejoin="round" stroke-linecap="butt" d="m574.4488 111.34646l10.393738 6.015747l-10.393738 6.015747z" fill-rule="evenodd"/><path fill="#ffffff" d="m733.2467 111.34646l10.393738 6.015747l-10.393738 6.015747z" fill-rule="evenodd"/><path stroke="#666666" stroke-width="1.0" stroke-linejoin="round" stroke-linecap="butt" d="m733.2467 111.34646l10.393738 6.015747l-10.393738 6.015747z" fill-rule="evenodd"/><path fill="#ffffff" d="m656.40155 352.70078l10.393738 6.015747l-10.393738 6.015747z" fill-rule="evenodd"/><path stroke="#666666" stroke-width="1.0" stroke-linejoin="round" stroke-linecap="butt" d="m656.40155 352.70078l10.393738 6.015747l-10.393738 6.015747z" fill-rule="evenodd"/><path fill="#ffffff" d="m496.08923 232.02362l10.393707 6.015747l-10.393707 6.015747z" fill-rule="evenodd"/><path stroke="#666666" stroke-width="1.0" stroke-linejoin="round" stroke-linecap="butt" d="m496.08923 232.02362l10.393707 6.015747l-10.393707 6.015747z" fill-rule="evenodd"/><path fill="#ffffff" d="m337.47507 232.02362l10.393707 6.015747l-10.393707 6.015747z" fill-rule="evenodd"/><path stroke="#666666" stroke-width="1.0" stroke-linejoin="round" stroke-linecap="butt" d="m337.47507 232.02362l10.393707 6.015747l-10.393707 6.015747z" fill-rule="evenodd"/><path fill="#ffffff" d="m180.27034 352.70078l10.393707 6.015747l-10.393707 6.015747z" fill-rule="evenodd"/><path stroke="#666666" stroke-width="1.0" stroke-linejoin="round" stroke-linecap="butt" d="m180.27034 352.70078l10.393707 6.015747l-10.393707 6.015747z" fill-rule="evenodd"/><path fill="#ffffff" d="m630.4475 158.19685l6.015747 -10.393707l6.015747 10.393707z" fill-rule="evenodd"/><path stroke="#666666" stroke-width="1.0" stroke-linejoin="round" stroke-linecap="butt" d="m630.4475 158.19685l6.015747 -10.393707l6.015747 10.393707z" fill-rule="evenodd"/><path fill="#ffffff" d="m789.2428 158.19685l6.015747 -10.393707l6.015747 10.393707z" fill-rule="evenodd"/><path stroke="#666666" stroke-width="1.0" stroke-linejoin="round" stroke-linecap="butt" d="m789.2428 158.19685l6.015747 -10.393707l6.015747 10.393707z" fill-rule="evenodd"/><path fill="#000000" fill-opacity="0.0" d="m126.16535 465.0l702.9921 0" fill-rule="evenodd"/><path stroke="#595959" stroke-width="3.0" stroke-linejoin="round" stroke-linecap="butt" d="m126.16535 465.0l684.9921 0" fill-rule="evenodd"/><path fill="#595959" stroke="#595959" stroke-width="3.0" stroke-linecap="butt" d="m811.1575 469.9552l13.614319 -4.9552l-13.614319 -4.9552z" fill-rule="evenodd"/><path fill="#ffffff" d="m420.38583 445.0l114.55118 0l0 40.0l-114.55118 0z" fill-rule="evenodd"/><path fill="#000000" d="m467.95786 458.54498l0 1.53125l-4.328125 0l0 11.84375l-1.8125 0l0 -11.84375l-4.328125 0l0 -1.53125l10.46875 0zm3.4759521 3.921875l0 9.453125l-1.65625 0l0 -9.453125l1.65625 0zm0.375 -2.96875q0 0.25 -0.09375 0.46875q-0.09375 0.203125 -0.265625 0.375q-0.15625 0.15625 -0.375 0.25q-0.21875 0.09375 -0.453125 0.09375q-0.25 0 -0.46875 -0.09375q-0.203125 -0.09375 -0.359375 -0.25q-0.15625 -0.171875 -0.25 -0.375q-0.09375 -0.21875 -0.09375 -0.46875q0 -0.234375 0.09375 -0.453125q0.09375 -0.21875 0.25 -0.375q0.15625 -0.171875 0.359375 -0.265625q0.21875 -0.09375 0.46875 -0.09375q0.234375 0 0.453125 0.09375q0.21875 0.09375 0.375 0.265625q0.171875 0.15625 0.265625 0.375q0.09375 0.21875 0.09375 0.453125zm2.557251 12.421875l0 -9.453125l0.984375 0q0.359375 0 0.453125 0.34375l0.125 0.96875q0.515625 -0.640625 1.15625 -1.046875q0.65625 -0.40625 1.515625 -0.40625q0.96875 0 1.5625 0.53125q0.59375 0.53125 0.84375 1.4375q0.203125 -0.515625 0.515625 -0.890625q0.328125 -0.375 0.71875 -0.609375q0.40625 -0.25 0.859375 -0.359375q0.453125 -0.109375 0.921875 -0.109375q0.75 0 1.328125 0.234375q0.578125 0.234375 0.984375 0.703125q0.40625 0.453125 0.625 1.125q0.21875 0.65625 0.21875 1.515625l0 6.015625l-1.65625 0l0 -6.015625q0 -1.109375 -0.5 -1.6875q-0.484375 -0.578125 -1.40625 -0.578125q-0.40625 0 -0.78125 0.15625q-0.359375 0.140625 -0.640625 0.421875q-0.28125 0.28125 -0.453125 0.703125q-0.15625 0.421875 -0.15625 0.984375l0 6.015625l-1.65625 0l0 -6.015625q0 -1.140625 -0.46875 -1.703125q-0.453125 -0.5625 -1.328125 -0.5625q-0.609375 0 -1.140625 0.34375q-0.53125 0.328125 -0.96875 0.890625l0 7.046875l-1.65625 0zm19.066772 -9.59375q0.84375 0 1.5625 0.28125q0.71875 0.28125 1.234375 0.828125q0.53125 0.53125 0.8125 1.328125q0.296875 0.78125 0.296875 1.78125q0 0.390625 -0.078125 0.53125q-0.078125 0.125 -0.3125 0.125l-6.296875 0q0.015625 0.890625 0.234375 1.5625q0.234375 0.65625 0.625 1.109375q0.390625 0.4375 0.9375 0.65625q0.546875 0.21875 1.203125 0.21875q0.625 0 1.078125 -0.140625q0.453125 -0.15625 0.78125 -0.3125q0.328125 -0.171875 0.546875 -0.3125q0.21875 -0.15625 0.375 -0.15625q0.21875 0 0.328125 0.15625l0.46875 0.609375q-0.3125 0.375 -0.75 0.65625q-0.421875 0.265625 -0.921875 0.453125q-0.484375 0.171875 -1.015625 0.25q-0.515625 0.09375 -1.015625 0.09375q-0.984375 0 -1.8125 -0.328125q-0.828125 -0.328125 -1.4375 -0.96875q-0.59375 -0.640625 -0.9375 -1.578125q-0.328125 -0.9375 -0.328125 -2.171875q0 -0.984375 0.296875 -1.84375q0.3125 -0.859375 0.875 -1.484375q0.578125 -0.625 1.390625 -0.984375q0.828125 -0.359375 1.859375 -0.359375zm0.03125 1.21875q-1.203125 0 -1.890625 0.703125q-0.6875 0.6875 -0.859375 1.921875l5.140625 0q0 -0.578125 -0.171875 -1.0625q-0.15625 -0.484375 -0.46875 -0.828125q-0.296875 -0.359375 -0.75 -0.546875q-0.4375 -0.1875 -1.0 -0.1875z" fill-rule="nonzero"/></g></svg>